<svg width="300" height="55" viewBox="0 0 300 55" fill="none" xmlns="http://www.w3.org/2000/svg">
<path d="M27.7539 38.3477C26.3867 39.6758 24.7656 40.7174 22.8906 41.4727C21.0156 42.2148 18.9714 42.5859 16.7578 42.5859C14.5312 42.5859 12.474 42.2083 10.5859 41.4531C8.69792 40.6849 7.05729 39.6172 5.66406 38.25C4.27083 36.8698 3.1901 35.2552 2.42188 33.4062C1.65365 31.5573 1.26953 29.5391 1.26953 27.3516C1.26953 25.1641 1.65365 23.1458 2.42188 21.2969C3.1901 19.4479 4.27083 17.8398 5.66406 16.4727C7.05729 15.0924 8.69792 14.0247 10.5859 13.2695C12.474 12.5013 14.5312 12.1172 16.7578 12.1172C18.9583 12.1172 20.9896 12.4948 22.8516 13.25C24.7135 13.9922 26.3346 15.0339 27.7148 16.375L22.9102 21.1992C22.168 20.2357 21.2565 19.4805 20.1758 18.9336C19.0951 18.3867 17.9167 18.1133 16.6406 18.1133C15.4557 18.1133 14.3555 18.3477 13.3398 18.8164C12.3242 19.2852 11.4388 19.9362 10.6836 20.7695C9.92839 21.6029 9.34245 22.5794 8.92578 23.6992C8.50911 24.819 8.30078 26.0299 8.30078 27.332C8.30078 28.6602 8.50911 29.8841 8.92578 31.0039C9.34245 32.1107 9.92839 33.0872 10.6836 33.9336C11.4388 34.7669 12.3242 35.418 13.3398 35.8867C14.3555 36.3555 15.4557 36.5898 16.6406 36.5898C17.9167 36.5898 19.0885 36.3164 20.1562 35.7695C21.237 35.2227 22.1549 34.4674 22.9102 33.5039L27.7539 38.3477ZM48.2594 42.5859C46.0198 42.5859 43.956 42.2083 42.068 41.4531C40.193 40.6849 38.5589 39.6172 37.1656 38.25C35.7724 36.8698 34.6917 35.2552 33.9234 33.4062C33.1552 31.5573 32.7711 29.5391 32.7711 27.3516C32.7711 25.1641 33.1552 23.1458 33.9234 21.2969C34.6917 19.4479 35.7659 17.8398 37.1461 16.4727C38.5393 15.0924 40.1799 14.0247 42.068 13.2695C43.956 12.5013 46.0198 12.1172 48.2594 12.1172C50.499 12.1172 52.5562 12.5013 54.4312 13.2695C56.3193 14.0247 57.9534 15.0924 59.3336 16.4727C60.7138 17.8398 61.788 19.4479 62.5562 21.2969C63.3245 23.1458 63.7086 25.1641 63.7086 27.3516C63.7086 29.5391 63.3245 31.5573 62.5562 33.4062C61.788 35.2552 60.7138 36.8698 59.3336 38.25C57.9534 39.6172 56.3193 40.6849 54.4312 41.4531C52.5562 42.2083 50.499 42.5859 48.2594 42.5859ZM48.2594 36.5898C49.4573 36.5898 50.5641 36.3555 51.5797 35.8867C52.6083 35.418 53.5003 34.7669 54.2555 33.9336C55.0237 33.0872 55.6161 32.1042 56.0328 30.9844C56.4625 29.8646 56.6773 28.6536 56.6773 27.3516C56.6773 26.0495 56.4625 24.8385 56.0328 23.7188C55.6161 22.599 55.0302 21.6159 54.275 20.7695C53.5198 19.9232 52.6279 19.2721 51.5992 18.8164C50.5706 18.3477 49.4573 18.1133 48.2594 18.1133C47.0615 18.1133 45.9417 18.3477 44.9 18.8164C43.8714 19.2721 42.9729 19.9232 42.2047 20.7695C41.4495 21.6159 40.857 22.599 40.4273 23.7188C40.0107 24.8385 39.8023 26.0495 39.8023 27.3516C39.8023 28.6536 40.0107 29.8646 40.4273 30.9844C40.857 32.1042 41.4495 33.0872 42.2047 33.9336C42.9729 34.7799 43.8714 35.4375 44.9 35.9062C45.9417 36.362 47.0615 36.5898 48.2594 36.5898ZM96.5578 42H88.55L76.4211 23.3086V42H69.5461V12.7031H77.5539L89.6828 31.4336V12.7031H96.5578V42ZM101.946 38.7383L105.188 33.5039C106.113 34.2331 106.992 34.832 107.825 35.3008C108.658 35.7565 109.479 36.0951 110.286 36.3164C111.093 36.5378 111.914 36.6484 112.747 36.6484C113.658 36.6484 114.44 36.5312 115.091 36.2969C115.755 36.0495 116.262 35.7044 116.614 35.2617C116.979 34.819 117.161 34.2917 117.161 33.6797C117.161 32.9635 116.92 32.3581 116.438 31.8633C115.957 31.3555 115.318 30.9128 114.524 30.5352C113.743 30.1445 112.89 29.7604 111.966 29.3828C111.028 28.9922 110.071 28.569 109.095 28.1133C108.131 27.6576 107.246 27.1042 106.438 26.4531C105.631 25.7891 104.973 24.9883 104.466 24.0508C103.971 23.1133 103.723 21.974 103.723 20.6328C103.723 18.862 104.166 17.3451 105.052 16.082C105.95 14.806 107.174 13.8294 108.723 13.1523C110.286 12.4622 112.05 12.1172 114.016 12.1172C115.449 12.1172 116.94 12.306 118.489 12.6836C120.052 13.0612 121.621 13.6471 123.196 14.4414L120.52 19.9688C119.583 19.3958 118.567 18.9466 117.473 18.6211C116.393 18.2826 115.384 18.1133 114.446 18.1133C113.704 18.1133 113.053 18.224 112.493 18.4453C111.946 18.6536 111.516 18.9531 111.204 19.3438C110.904 19.7344 110.755 20.1901 110.755 20.7109C110.755 21.375 110.989 21.9544 111.458 22.4492C111.94 22.931 112.565 23.3672 113.333 23.7578C114.101 24.1484 114.934 24.5456 115.833 24.9492C116.783 25.3529 117.747 25.8021 118.723 26.2969C119.713 26.7917 120.618 27.3776 121.438 28.0547C122.272 28.7188 122.936 29.5195 123.43 30.457C123.938 31.3945 124.192 32.5208 124.192 33.8359C124.192 35.5677 123.723 37.0977 122.786 38.4258C121.861 39.7409 120.559 40.763 118.88 41.4922C117.213 42.2214 115.273 42.5859 113.059 42.5859C111.015 42.5859 109.049 42.2604 107.161 41.6094C105.286 40.9453 103.548 39.9883 101.946 38.7383ZM129.971 42V12.7031H140.323C142.81 12.7031 144.958 13.1133 146.768 13.9336C148.591 14.7539 149.991 15.9193 150.967 17.4297C151.957 18.9401 152.452 20.737 152.452 22.8203C152.452 24.9036 151.957 26.707 150.967 28.2305C149.991 29.7539 148.604 30.9323 146.807 31.7656C145.01 32.5859 142.875 32.9961 140.401 32.9961H136.846V42H129.971ZM136.846 27H139.659C141.521 27 142.946 26.6419 143.936 25.9258C144.926 25.1966 145.42 24.1615 145.42 22.8203C145.42 21.5052 144.919 20.4896 143.916 19.7734C142.927 19.0573 141.508 18.6992 139.659 18.6992H136.846V27ZM158.934 42V12.7031H178.152V18.6992H165.809V24.3047H177.371V30.3008H165.809V36.0039H178.348V42H158.934ZM210.279 38.3477C208.912 39.6758 207.291 40.7174 205.416 41.4727C203.541 42.2148 201.496 42.5859 199.283 42.5859C197.056 42.5859 194.999 42.2083 193.111 41.4531C191.223 40.6849 189.582 39.6172 188.189 38.25C186.796 36.8698 185.715 35.2552 184.947 33.4062C184.179 31.5573 183.795 29.5391 183.795 27.3516C183.795 25.1641 184.179 23.1458 184.947 21.2969C185.715 19.4479 186.796 17.8398 188.189 16.4727C189.582 15.0924 191.223 14.0247 193.111 13.2695C194.999 12.5013 197.056 12.1172 199.283 12.1172C201.483 12.1172 203.515 12.4948 205.377 13.25C207.239 13.9922 208.86 15.0339 210.24 16.375L205.435 21.1992C204.693 20.2357 203.782 19.4805 202.701 18.9336C201.62 18.3867 200.442 18.1133 199.166 18.1133C197.981 18.1133 196.88 18.3477 195.865 18.8164C194.849 19.2852 193.964 19.9362 193.209 20.7695C192.453 21.6029 191.867 22.5794 191.451 23.6992C191.034 24.819 190.826 26.0299 190.826 27.332C190.826 28.6602 191.034 29.8841 191.451 31.0039C191.867 32.1107 192.453 33.0872 193.209 33.9336C193.964 34.7669 194.849 35.418 195.865 35.8867C196.88 36.3555 197.981 36.5898 199.166 36.5898C200.442 36.5898 201.614 36.3164 202.681 35.7695C203.762 35.2227 204.68 34.4674 205.435 33.5039L210.279 38.3477ZM229.573 42H222.698V18.6992H214.32V12.7031H237.952V18.6992H229.573V42ZM268.731 12.7031V28.7969C268.731 31.6615 268.21 34.1224 267.169 36.1797C266.14 38.237 264.656 39.819 262.716 40.9258C260.789 42.0326 258.471 42.5859 255.762 42.5859C253.08 42.5859 250.769 42.0326 248.829 40.9258C246.889 39.819 245.398 38.237 244.356 36.1797C243.328 34.1224 242.813 31.6615 242.813 28.7969V12.7031H249.688V27.8984C249.688 29.8516 249.91 31.4727 250.352 32.7617C250.808 34.0378 251.485 34.9948 252.384 35.6328C253.282 36.2708 254.408 36.5898 255.762 36.5898C257.13 36.5898 258.262 36.2708 259.161 35.6328C260.059 34.9948 260.73 34.0378 261.173 32.7617C261.628 31.4727 261.856 29.8516 261.856 27.8984V12.7031H268.731ZM274.12 38.7383L277.362 33.5039C278.286 34.2331 279.165 34.832 279.998 35.3008C280.832 35.7565 281.652 36.0951 282.459 36.3164C283.267 36.5378 284.087 36.6484 284.92 36.6484C285.832 36.6484 286.613 36.5312 287.264 36.2969C287.928 36.0495 288.436 35.7044 288.788 35.2617C289.152 34.819 289.334 34.2917 289.334 33.6797C289.334 32.9635 289.093 32.3581 288.612 31.8633C288.13 31.3555 287.492 30.9128 286.698 30.5352C285.916 30.1445 285.064 29.7604 284.139 29.3828C283.202 28.9922 282.245 28.569 281.268 28.1133C280.304 27.6576 279.419 27.1042 278.612 26.4531C277.804 25.7891 277.147 24.9883 276.639 24.0508C276.144 23.1133 275.897 21.974 275.897 20.6328C275.897 18.862 276.34 17.3451 277.225 16.082C278.123 14.806 279.347 13.8294 280.897 13.1523C282.459 12.4622 284.224 12.1172 286.19 12.1172C287.622 12.1172 289.113 12.306 290.663 12.6836C292.225 13.0612 293.794 13.6471 295.37 14.4414L292.694 19.9688C291.756 19.3958 290.741 18.9466 289.647 18.6211C288.566 18.2826 287.557 18.1133 286.62 18.1133C285.877 18.1133 285.226 18.224 284.666 18.4453C284.12 18.6536 283.69 18.9531 283.377 19.3438C283.078 19.7344 282.928 20.1901 282.928 20.7109C282.928 21.375 283.163 21.9544 283.631 22.4492C284.113 22.931 284.738 23.3672 285.506 23.7578C286.274 24.1484 287.108 24.5456 288.006 24.9492C288.957 25.3529 289.92 25.8021 290.897 26.2969C291.886 26.7917 292.791 27.3776 293.612 28.0547C294.445 28.7188 295.109 29.5195 295.604 30.457C296.112 31.3945 296.366 32.5208 296.366 33.8359C296.366 35.5677 295.897 37.0977 294.959 38.4258C294.035 39.7409 292.733 40.763 291.053 41.4922C289.386 42.2214 287.446 42.5859 285.233 42.5859C283.189 42.5859 281.222 42.2604 279.334 41.6094C277.459 40.9453 275.721 39.9883 274.12 38.7383Z" fill="url(#paint0_linear_69_14)"/>
<circle cx="48" cy="27" r="16" fill="url(#paint1_linear_69_14)"/>
<mask id="mask0_69_14" style="mask-type:luminance" maskUnits="userSpaceOnUse" x="33" y="12" width="30" height="30">
<path d="M33.5609 12.561H62.439V41.4391H33.5609V12.561Z" fill="white"/>
</mask>
<g mask="url(#mask0_69_14)">
<path d="M41.058 24.1381C40.9848 24.3193 40.9153 24.5045 40.8536 24.6896L40.7109 24.6433C40.7727 24.4543 40.8421 24.2654 40.9192 24.0802L41.058 24.1381ZM40.3677 27.6129C40.3831 27.8096 40.4063 28.0101 40.4371 28.2068L40.5875 28.1836C40.5567 27.9908 40.5335 27.7941 40.5181 27.6013L40.3677 27.6129ZM40.6955 25.2604L40.549 25.2256C40.5027 25.4185 40.4641 25.6152 40.4333 25.8118L40.5837 25.835C40.6145 25.6422 40.6531 25.4493 40.6955 25.2604ZM40.4911 26.9997C40.4911 26.8068 40.4988 26.614 40.5143 26.4212L40.3639 26.4096C40.3523 26.6063 40.3446 26.803 40.3446 26.9997V27.0112H40.4911V26.9997ZM40.8614 29.329C40.7996 29.1439 40.7457 28.9511 40.6994 28.7621L40.5567 28.7968C40.603 28.9897 40.657 29.1863 40.7187 29.3753L40.8614 29.329ZM41.8062 31.508L41.9296 31.4193C41.8139 31.2612 41.7021 31.0954 41.6018 30.9295L41.4745 31.0067C41.5787 31.1763 41.6905 31.346 41.8062 31.508ZM41.3049 23.602C41.3936 23.4285 41.49 23.2549 41.5941 23.0891L41.463 23.0081C41.3589 23.1778 41.2624 23.3552 41.1699 23.5326L41.3049 23.602ZM44.0006 33.5327C44.1742 33.6368 44.3516 33.7371 44.529 33.8258L44.5945 33.6947C44.421 33.606 44.2474 33.5057 44.0816 33.4054L44.0006 33.5327ZM40.9269 29.9384C41.004 30.1235 41.0889 30.3048 41.1776 30.4822L41.3126 30.4166C41.2239 30.2431 41.139 30.0618 41.0658 29.8805L40.9269 29.9384ZM48.5938 34.4853L48.6054 34.6318C48.802 34.6164 49.0026 34.5933 49.1993 34.5624L49.1761 34.4159C48.9833 34.4467 48.7866 34.4699 48.5938 34.4853ZM46.2181 34.4467C46.411 34.493 46.6077 34.5354 46.8043 34.5663L46.8275 34.4159C46.6346 34.385 46.4418 34.3464 46.2528 34.304L46.2181 34.4467ZM47.4137 34.4853L47.4021 34.6357C47.5988 34.6511 47.7993 34.6588 47.9999 34.6588H48.0037L47.9999 34.5084C47.8032 34.5084 47.6065 34.5007 47.4137 34.4853ZM42.6932 32.314C42.5582 32.1752 42.4233 32.0286 42.296 31.8782L42.1803 31.9785C42.3114 32.1289 42.4464 32.2793 42.5891 32.4182L42.6932 32.314ZM45.0727 34.0765C45.2579 34.1536 45.4468 34.223 45.6397 34.2847L45.6859 34.1421C45.497 34.0842 45.3118 34.0148 45.1306 33.9415L45.0727 34.0765ZM43.0287 32.827C43.183 32.9542 43.3411 33.0815 43.5031 33.1972L43.5918 33.0776C43.4337 32.9619 43.2756 32.8385 43.129 32.7113L43.0287 32.827ZM55.3004 28.7544L55.4431 28.7891C55.4894 28.5963 55.5318 28.3958 55.5626 28.1991L55.4122 28.1759C55.3814 28.3688 55.3428 28.5616 55.3004 28.7544ZM54.5175 22.9888C54.4134 22.8191 54.3015 22.6495 54.182 22.4875L54.0624 22.5762C54.1781 22.7343 54.29 22.9001 54.3902 23.066L54.5175 22.9888ZM51.9991 33.5289C52.1688 33.4247 52.3385 33.3129 52.5005 33.1933L52.4118 33.0738C52.2537 33.1895 52.0878 33.2975 51.922 33.4016L51.9991 33.5289ZM55.4084 25.808C55.4392 26.0008 55.4662 26.1975 55.4816 26.3942L55.6282 26.3826C55.6128 26.1821 55.5896 25.9815 55.5588 25.7848L55.4084 25.808ZM43.1175 21.2996L43.0172 21.1878C42.8668 21.3151 42.7202 21.4539 42.5775 21.5966L42.6855 21.7007C42.8205 21.5619 42.967 21.4269 43.1175 21.2996ZM51.3937 20.3047C51.5672 20.3934 51.7408 20.4898 51.9066 20.5939L51.9876 20.4666C51.814 20.3625 51.6405 20.2622 51.4631 20.1735L51.3937 20.3047ZM55.4392 25.1948C55.3929 25.002 55.3389 24.8091 55.2772 24.6163L55.1345 24.6664C55.1924 24.8516 55.2464 25.0405 55.2927 25.2334L55.4392 25.1948ZM55.6552 26.9997V26.9842H55.5048V26.9997C55.5048 27.1964 55.4971 27.3969 55.4816 27.5897L55.632 27.6013C55.6475 27.4046 55.6552 27.2002 55.6552 26.9997ZM49.7546 34.3002L49.7893 34.4467C49.986 34.4004 50.1788 34.3464 50.3678 34.2847L50.3215 34.1421C50.1364 34.1999 49.9436 34.2539 49.7546 34.3002ZM44.5791 20.3162C44.7526 20.2275 44.9339 20.1465 45.1152 20.0694L45.0573 19.9306C44.8722 20.0077 44.6909 20.0925 44.5135 20.1851L44.5791 20.3162ZM44.0662 20.6055L43.989 20.4782C43.8193 20.5823 43.6497 20.6942 43.4915 20.8137L43.5802 20.9333C43.7345 20.8176 43.9003 20.7096 44.0662 20.6055ZM50.3023 19.8573C50.4912 19.9151 50.6763 19.9846 50.8576 20.0578L50.9154 19.9229C50.7303 19.8457 50.5414 19.7763 50.3485 19.7146L50.3023 19.8573ZM45.6666 19.865C45.8518 19.8033 46.0446 19.7493 46.2336 19.703L46.1989 19.5603C46.0022 19.6066 45.8093 19.6606 45.6204 19.7223L45.6666 19.865ZM49.1569 19.5835C49.3535 19.6143 49.5464 19.6529 49.7353 19.6992L49.77 19.5526C49.5772 19.5063 49.3805 19.4678 49.18 19.4369L49.1569 19.5835ZM46.8121 19.5912C47.0049 19.5603 47.2016 19.5333 47.3944 19.5179L47.3828 19.3714C47.1861 19.3868 46.9856 19.4099 46.7889 19.4408L46.8121 19.5912ZM47.9845 19.3444V19.4948H47.9999C48.1888 19.4948 48.3817 19.5025 48.5745 19.5179L48.5861 19.3675C48.3894 19.3521 48.1927 19.3444 47.9999 19.3444H47.9845ZM41.9219 22.5993C42.0338 22.4373 42.1572 22.2831 42.2844 22.1327L42.1687 22.0363C42.0415 22.1905 41.9142 22.3486 41.7985 22.5106L41.9219 22.5993ZM54.0701 31.4116C53.9583 31.5697 53.8349 31.7278 53.7076 31.8744L53.8195 31.9747C53.9506 31.8204 54.074 31.6623 54.1935 31.5003L54.0701 31.4116ZM54.3979 30.9218L54.5291 31.0028C54.6332 30.8293 54.7296 30.6557 54.8222 30.4783L54.6872 30.4089C54.5985 30.5824 54.5021 30.756 54.3979 30.9218ZM53.4029 21.5773L53.295 21.6853C53.4338 21.8241 53.5688 21.9668 53.696 22.1172L53.8117 22.017C53.6806 21.8666 53.5418 21.72 53.4029 21.5773ZM53.3065 32.3063C53.1677 32.4452 53.0211 32.5801 52.8746 32.7074L52.971 32.8231C53.1214 32.692 53.2718 32.557 53.4107 32.4143L53.3065 32.3063ZM54.8144 23.5095L54.6795 23.5789C54.7682 23.7524 54.853 23.9337 54.9301 24.115L55.0651 24.0571C54.9919 23.872 54.9032 23.6869 54.8144 23.5095ZM55.1384 29.3213C55.0767 29.5064 55.0111 29.6916 54.934 29.8728L55.0728 29.9307C55.15 29.7456 55.2194 29.5566 55.2811 29.3676L55.1384 29.3213ZM50.873 33.9377L50.9309 34.0765C51.116 33.9994 51.2973 33.9145 51.4785 33.822L51.4091 33.6908C51.2355 33.7795 51.0543 33.8605 50.873 33.9377ZM52.4851 20.7983L52.4002 20.9217C52.5584 21.0335 52.7126 21.157 52.863 21.2842L52.9594 21.1685C52.8052 21.0413 52.6471 20.914 52.4851 20.7983ZM44.5637 13.1276L44.5251 12.981C44.3323 13.0311 44.1356 13.0851 43.9428 13.1391L43.9852 13.2818C44.178 13.2278 44.3708 13.1738 44.5637 13.1276ZM58.2699 17.069C58.4088 17.2078 58.5438 17.3582 58.6749 17.5048L58.7867 17.4045C58.6556 17.2541 58.5168 17.1075 58.3779 16.9649L58.2699 17.069ZM58.8291 36.3249L58.941 36.4213C59.0721 36.2709 59.2032 36.1128 59.3266 35.9546L59.2071 35.8621C59.0875 36.0163 58.9564 36.1745 58.8291 36.3249ZM43.4183 13.4631L43.3681 13.3204C43.1792 13.386 42.9863 13.4554 42.8012 13.5248L42.8552 13.6675C43.0403 13.5942 43.2293 13.5248 43.4183 13.4631ZM59.5696 35.3877L59.6892 35.4764C59.8087 35.3106 59.9244 35.1448 60.0363 34.9789L59.909 34.8979C59.801 35.0599 59.6853 35.2257 59.5696 35.3877ZM45.7322 12.8923L45.7091 12.7419C45.5124 12.7728 45.3118 12.8113 45.1152 12.8499L45.146 12.9964C45.3388 12.9579 45.5355 12.9232 45.7322 12.8923ZM58.0116 37.1965L58.1157 37.3006C58.2622 37.1618 58.4011 37.0152 58.5399 36.8687L58.4281 36.7684C58.2931 36.9111 58.1542 37.0538 58.0116 37.1965ZM46.9162 12.7535L46.9046 12.6031C46.7079 12.6185 46.5035 12.6378 46.3068 12.6609L46.3223 12.8113C46.519 12.7882 46.7195 12.7689 46.9162 12.7535ZM59.9013 18.8276L59.7779 18.9124C59.8897 19.0744 60.0015 19.2441 60.1057 19.4099L60.2329 19.3289C60.1288 19.1631 60.017 18.9934 59.9013 18.8276ZM59.0644 17.9599C59.1878 18.1103 59.3112 18.2684 59.4308 18.4265L59.5503 18.3378C59.4308 18.1797 59.3035 18.0177 59.1801 17.8634L59.0644 17.9599ZM56.1797 38.7198L56.2645 38.8432C56.4265 38.7275 56.5923 38.608 56.7505 38.4846L56.6617 38.365C56.5036 38.4884 56.3417 38.6041 56.1797 38.7198ZM41.2316 14.4118L41.1622 14.2807C40.9848 14.3732 40.8112 14.4735 40.6377 14.5776L40.7148 14.7049C40.8845 14.6046 41.058 14.5044 41.2316 14.4118ZM61.7524 22.5993C61.6946 22.4065 61.6252 22.2137 61.5596 22.0285L61.4169 22.0787C61.4863 22.2638 61.5519 22.4566 61.6097 22.6417L61.7524 22.5993ZM42.3037 13.8912L42.2459 13.7562C42.0607 13.8333 41.8795 13.9182 41.6982 14.0069L41.7638 14.1418C41.9412 14.0531 42.1225 13.9722 42.3037 13.8912ZM55.4855 14.8283C55.6513 14.9324 55.821 15.0404 55.9868 15.1523L56.0717 15.0289C55.902 14.917 55.7323 14.8052 55.5626 14.701L55.4855 14.8283ZM57.4061 16.2437C57.5526 16.3748 57.703 16.5098 57.8457 16.6486L57.9498 16.5368C57.8033 16.3979 57.6529 16.263 57.5025 16.1318L57.4061 16.2437ZM56.4728 15.4955C56.6348 15.6151 56.7929 15.7346 56.9471 15.8619L57.0397 15.7423C56.8854 15.6189 56.7235 15.4955 56.5615 15.3759L56.4728 15.4955ZM57.1284 37.9948L57.2248 38.1105C57.3752 37.9832 57.5295 37.8482 57.6799 37.7171L57.5796 37.6053C57.4292 37.7364 57.2788 37.8675 57.1284 37.9948ZM62.2615 26.1551L62.4119 26.1474C62.4003 25.9468 62.3849 25.7424 62.3656 25.5457L62.2152 25.5612C62.2345 25.7579 62.2499 25.9584 62.2615 26.1551ZM55.042 14.3925C54.8684 14.2961 54.6872 14.1997 54.5098 14.111L54.4404 14.2421C54.6178 14.3347 54.7952 14.4272 54.9687 14.5236L55.042 14.3925ZM62.0725 23.7601C62.0262 23.5635 61.9761 23.3668 61.926 23.1739L61.7794 23.2164C61.8334 23.4053 61.8836 23.602 61.926 23.7949L62.0725 23.7601ZM62.1458 24.9673L62.2924 24.948C62.2654 24.7474 62.2306 24.5469 62.1959 24.3502L62.0455 24.3772C62.0841 24.5739 62.1149 24.7706 62.1458 24.9673ZM48.1117 12.7111V12.5645C47.9112 12.5606 47.7068 12.5645 47.5062 12.5722L47.5139 12.7188C47.7106 12.7149 47.9112 12.7111 48.1117 12.7111ZM61.2935 32.2523L61.4323 32.3063C61.5056 32.1212 61.575 31.9284 61.6406 31.7394L61.5018 31.6893C61.4362 31.8782 61.3668 32.0672 61.2935 32.2523ZM62.1767 28.7891L62.3271 28.8045C62.3502 28.6079 62.3733 28.4035 62.3888 28.2068L62.2384 28.1952C62.2229 28.3919 62.1998 28.5924 62.1767 28.7891ZM62.435 26.749L62.2846 26.7528C62.2885 26.8338 62.2885 26.9187 62.2885 26.9997C62.2885 27.2002 62.2846 27.4008 62.2769 27.5974L62.4235 27.6052C62.435 27.4046 62.4389 27.2041 62.4389 26.9997C62.4389 26.9187 62.435 26.8338 62.435 26.749ZM61.98 29.9654L62.1265 29.9962C62.1689 29.7995 62.2037 29.6029 62.2384 29.4023L62.0918 29.3792C62.0571 29.5759 62.0224 29.7725 61.98 29.9654ZM61.683 31.1224L61.8296 31.1648C61.8874 30.9719 61.9414 30.7753 61.9915 30.5824L61.845 30.5477C61.7949 30.7367 61.7409 30.9295 61.683 31.1224ZM53.9621 13.8487C53.7809 13.7639 53.5919 13.6868 53.4068 13.6096L53.3528 13.7485C53.5341 13.8217 53.7192 13.9027 53.9004 13.9837L53.9621 13.8487ZM60.5415 19.8457L60.4142 19.9229C60.5106 20.0925 60.607 20.2699 60.6996 20.4435L60.8307 20.3741C60.7382 20.1967 60.6417 20.0193 60.5415 19.8457ZM49.315 12.6223C49.1144 12.6031 48.9139 12.5876 48.7133 12.5799L48.7056 12.7303C48.9062 12.738 49.1029 12.7535 49.3034 12.7728L49.315 12.6223ZM60.2291 34.3927L60.3602 34.4699C60.4643 34.2963 60.5646 34.1228 60.661 33.9454L60.5299 33.8721C60.4335 34.0495 60.3332 34.223 60.2291 34.3927ZM52.8437 13.3937C52.6548 13.3281 52.4619 13.2625 52.2691 13.2047L52.2267 13.3474C52.4157 13.4052 52.6046 13.4708 52.7936 13.5364L52.8437 13.3937ZM50.5105 12.7805C50.3138 12.7458 50.1133 12.7149 49.9166 12.6879L49.8973 12.8383C50.0901 12.8615 50.2907 12.8923 50.4835 12.927L50.5105 12.7805ZM61.0968 20.9178L60.9618 20.9796C61.0428 21.157 61.1238 21.3421 61.2009 21.5233L61.3398 21.4655C61.2626 21.2804 61.1817 21.0953 61.0968 20.9178ZM51.6906 13.0389C51.4978 12.9887 51.2973 12.9386 51.1044 12.8962L51.0697 13.0427C51.2664 13.0851 51.4592 13.1314 51.6521 13.1854L51.6906 13.0389ZM60.8076 33.3437L60.9387 33.4093C61.0313 33.2319 61.1161 33.0468 61.1971 32.8655L61.0621 32.8038C60.9811 32.9851 60.8924 33.1663 60.8076 33.3437ZM34.4556 22.4296L34.3129 22.3833C34.2512 22.5723 34.1895 22.7651 34.1316 22.958L34.2782 23.0004C34.3322 22.8114 34.3939 22.6186 34.4556 22.4296ZM40.3291 39.2366C40.4988 39.3446 40.6724 39.4487 40.8459 39.5451L40.9192 39.4178C40.7495 39.3176 40.576 39.2135 40.4063 39.1093L40.3291 39.2366ZM41.3781 39.8344C41.5555 39.9269 41.7368 40.0156 41.9181 40.1005L41.9836 39.9655C41.8024 39.8806 41.6211 39.7919 41.4437 39.7032L41.3781 39.8344ZM39.6272 15.2333L39.7159 15.3567C39.8779 15.241 40.0438 15.1291 40.2096 15.0211L40.1247 14.8939C39.9589 15.0019 39.7931 15.1176 39.6272 15.2333ZM37.6411 36.8455L37.5331 36.9496C37.672 37.0923 37.8147 37.2389 37.9574 37.3777L38.0615 37.2697C37.9188 37.1309 37.7761 36.9882 37.6411 36.8455ZM38.4009 37.7865C38.5474 37.9215 38.7017 38.0526 38.8598 38.1799L38.9523 38.0642C38.7981 37.9369 38.6477 37.8058 38.5011 37.6747L38.4009 37.7865ZM37.7915 16.7913L37.8956 16.8954C38.0345 16.7566 38.181 16.6178 38.3276 16.4828L38.2235 16.3709C38.0769 16.5098 37.9304 16.6486 37.7915 16.7913ZM42.4734 40.3434C42.6585 40.4206 42.8475 40.4977 43.0365 40.5633L43.0866 40.4244C42.9015 40.355 42.7125 40.2817 42.5313 40.2084L42.4734 40.3434ZM38.6785 15.9737L38.7749 16.0894C38.9254 15.9621 39.0796 15.8349 39.2377 15.7115L39.1452 15.5958C38.9871 15.7153 38.8289 15.8464 38.6785 15.9737ZM39.3341 38.554C39.4923 38.6735 39.6581 38.7892 39.8239 38.9049L39.9088 38.7815C39.7429 38.6697 39.581 38.5501 39.4228 38.4306L39.3341 38.554ZM54.1203 39.9153L54.1858 40.0503C54.3671 39.9655 54.5483 39.8768 54.7219 39.7804L54.6525 39.6492C54.4789 39.7418 54.3015 39.8305 54.1203 39.9153ZM48.3585 41.2844L48.3624 41.4348C48.5629 41.431 48.7673 41.4233 48.964 41.4078L48.9563 41.2574C48.7596 41.2729 48.5591 41.2806 48.3585 41.2844ZM51.8912 40.7522L51.9336 40.8988C52.1226 40.8448 52.3192 40.7831 52.5082 40.7214L52.4619 40.5787C52.273 40.6404 52.0801 40.6982 51.8912 40.7522ZM47.1553 41.4156C47.3558 41.4271 47.5602 41.4348 47.7608 41.4387V41.2883C47.5641 41.2844 47.3635 41.2767 47.1669 41.2651L47.1553 41.4156ZM43.6072 40.7599C43.8001 40.8216 43.9929 40.8795 44.1857 40.9335L44.2243 40.7869C44.0353 40.7368 43.8425 40.6789 43.6535 40.6172L43.6072 40.7599ZM49.5502 41.2073L49.5656 41.3577C49.7662 41.3346 49.9667 41.3076 50.1634 41.2806L50.1403 41.1302C49.9474 41.161 49.7469 41.1842 49.5502 41.2073ZM55.1731 39.36L55.2502 39.4911C55.4238 39.3909 55.5973 39.2829 55.7632 39.1749L55.6822 39.0515C55.5163 39.1556 55.3467 39.2597 55.1731 39.36ZM45.9559 41.296C46.1526 41.3269 46.357 41.35 46.5575 41.3693L46.5691 41.2189C46.3724 41.1996 46.1719 41.1764 45.979 41.1495L45.9559 41.296ZM53.025 40.382L53.079 40.5208C53.2641 40.4514 53.4531 40.3743 53.6382 40.2971L53.5765 40.1583C53.3952 40.2354 53.2101 40.3126 53.025 40.382ZM44.7719 41.08C44.9648 41.1225 45.1653 41.1649 45.362 41.1996L45.389 41.053C45.1923 41.0183 44.9956 40.9759 44.8028 40.9335L44.7719 41.08ZM33.7498 25.9314L33.5994 25.9198C33.584 26.1204 33.5724 26.3248 33.5686 26.5253L33.719 26.5292C33.7228 26.3286 33.7344 26.1281 33.7498 25.9314ZM33.9272 29.4987L33.7807 29.5257C33.8154 29.7224 33.854 29.923 33.8964 30.1196L34.0429 30.0849C34.0005 29.8921 33.9619 29.6954 33.9272 29.4987ZM33.8848 24.7474L33.7383 24.7243C33.7074 24.921 33.6804 25.1215 33.6573 25.3221L33.8038 25.3375C33.827 25.1408 33.854 24.9403 33.8848 24.7474ZM33.7691 28.3186L33.6187 28.3302C33.638 28.5307 33.6611 28.7313 33.6881 28.9318L33.8347 28.9087C33.8115 28.7158 33.7884 28.5153 33.7691 28.3186ZM33.7113 27.1269H33.5609C33.5609 27.3275 33.5686 27.5319 33.5763 27.7286L33.7267 27.7209C33.719 27.5242 33.7113 27.3236 33.7113 27.1269ZM35.4082 20.2391L35.277 20.1697C35.1806 20.3432 35.0881 20.5245 34.9994 20.7057L35.1343 20.7713C35.223 20.5939 35.3156 20.4126 35.4082 20.2391ZM34.8875 21.3151L34.7487 21.2534C34.6677 21.4385 34.5906 21.6275 34.5211 21.8126L34.66 21.8666C34.7294 21.6815 34.8065 21.4963 34.8875 21.3151ZM34.1239 23.575L33.9774 23.5403C33.9272 23.737 33.8848 23.9337 33.8462 24.1304L33.9928 24.1612C34.0314 23.9645 34.0738 23.7679 34.1239 23.575ZM50.7303 41.0299L50.7573 41.1764C50.9579 41.1379 51.1546 41.0955 51.3474 41.0492L51.3127 40.9026C51.1198 40.9489 50.927 40.9913 50.7303 41.0299ZM36.0252 35.0715C36.137 35.2373 36.2527 35.4032 36.3723 35.5651L36.4919 35.4764C36.3723 35.3145 36.2566 35.1525 36.1486 34.9866L36.0252 35.0715ZM35.574 19.6413L35.7013 19.7185C35.8015 19.5488 35.9095 19.3791 36.0175 19.2094L35.8902 19.1284C35.7822 19.2981 35.6743 19.4678 35.574 19.6413ZM36.9739 17.6783L37.0858 17.7747C37.2169 17.6243 37.348 17.4739 37.483 17.3274L37.3712 17.2271C37.2362 17.3737 37.1012 17.5241 36.9739 17.6783ZM36.2335 18.6309L36.353 18.7157C36.4687 18.5576 36.5883 18.3956 36.7117 18.2375L36.5921 18.145C36.4687 18.3031 36.3492 18.4689 36.2335 18.6309ZM34.0391 30.7058C34.0892 30.8987 34.1471 31.0915 34.2049 31.2843L34.3476 31.238C34.2897 31.0491 34.2358 30.8562 34.1856 30.6673L34.0391 30.7058ZM36.7387 36.0433C36.8659 36.1976 36.9932 36.3519 37.1282 36.5023L37.24 36.4059C37.1089 36.2555 36.9816 36.1012 36.8544 35.9469L36.7387 36.0433ZM34.3977 31.8551C34.4633 32.0441 34.5366 32.233 34.6098 32.4182L34.7487 32.3642C34.6754 32.1791 34.6021 31.9901 34.5366 31.805L34.3977 31.8551ZM34.8489 32.9735C34.9299 33.1548 35.0186 33.336 35.1073 33.5134L35.2423 33.4479C35.1536 33.2705 35.0649 33.0892 34.9839 32.9118L34.8489 32.9735ZM35.3927 34.0456C35.4891 34.2192 35.5933 34.3966 35.6974 34.5663L35.8247 34.4853C35.7205 34.3195 35.6203 34.1459 35.5238 33.9724L35.3927 34.0456Z" fill="white"/>
</g>
<path d="M48.0733 35.6501H48.5977L48 36.6875L47.3984 35.6501H47.9228V33.9031H48.0733V35.6501ZM43.0636 31.8282L41.8295 33.0662L41.4592 32.6959L41.1507 33.8529L42.3038 33.5405L41.9336 33.1703L43.1715 31.9362L43.0636 31.8282ZM39.3497 26.402L38.3123 26.9998L39.3497 27.6014V27.0769H41.0967V26.9265H39.3497V26.402ZM42.3038 20.4629L41.1507 20.1505L41.4592 21.3075L41.8295 20.9372L43.0636 22.1752L43.1715 22.0672L41.9336 20.8331L42.3038 20.4629ZM47.3984 18.3533H47.9228V20.0965H48.0733V18.3533H48.5977L48 17.3159L47.3984 18.3533ZM52.9325 22.1752L54.1666 20.9372L54.5369 21.3075L54.8493 20.1505L53.6923 20.4629L54.0625 20.8331L52.8284 22.0672L52.9325 22.1752ZM57.6838 26.9998L56.6503 26.402V26.9265H54.9033V27.0769H56.6503V27.6014L57.6838 26.9998ZM54.1666 33.0662L52.9325 31.8282L52.8284 31.9362L54.0625 33.1703L53.6923 33.5405L54.8493 33.8529L54.5369 32.6959L54.1666 33.0662Z" fill="white"/>
<defs>
<linearGradient id="paint0_linear_69_14" x1="-140" y1="-14" x2="-114.255" y2="132.183" gradientUnits="userSpaceOnUse">
<stop stop-color="white"/>
<stop offset="0.502806" stop-color="#4F87ED"/>
<stop offset="0.670194" stop-color="#2D1E44" stop-opacity="0.828054"/>
<stop offset="0.771834" stop-color="#B5394C" stop-opacity="0.99"/>
<stop offset="1"/>
</linearGradient>
<linearGradient id="paint1_linear_69_14" x1="17.0667" y1="2.85455" x2="60.8761" y2="48.46" gradientUnits="userSpaceOnUse">
<stop stop-color="white"/>
<stop offset="0.502806" stop-color="#4F87ED"/>
<stop offset="0.704823" stop-color="#B5394C"/>
<stop offset="1"/>
</linearGradient>
</defs>
</svg>
